<?xml version="1.0" encoding="UTF-8"?>
<!-- Generator: Adobe Illustrator 22.0.1, SVG Export Plug-In . SVG Version: 6.00 Build 0)  -->
<svg version="1.1" id="Calque_1" xmlns="http://www.w3.org/2000/svg" xmlns:xlink="http://www.w3.org/1999/xlink" x="0px" y="0px" viewBox="0 0 250 40" style="enable-background:new 0 0 250 40;" xml:space="preserve">
<style type="text/css">
	.st0{enable-background:new    ;}
</style>
<image style="display:none;overflow:visible;enable-background:new    ;" width="125" height="89" id="noun_virus_3166287-2" xlink:href="A4BD789EA9751791.png" transform="matrix(0.9741 0 0 0.9741 12.8736 1.406)">
</image>
<g class="st0">
	<path d="M68.9,12.2c1.3-1.4,3-2,5.1-2c2.7,0,4.8,0.9,6,2.7c0.7,1,1.1,2,1.1,3.1h-3.4c-0.2-0.8-0.5-1.4-0.8-1.8   c-0.6-0.7-1.5-1.1-2.7-1.1c-1.2,0-2.2,0.5-2.9,1.5s-1.1,2.4-1.1,4.3c0,1.9,0.4,3.2,1.1,4.2c0.7,0.9,1.7,1.4,2.9,1.4   c1.2,0,2.1-0.4,2.7-1.2c0.3-0.4,0.6-1.1,0.9-1.9h3.4c-0.3,1.8-1.1,3.3-2.3,4.4c-1.2,1.1-2.8,1.7-4.7,1.7c-2.3,0-4.2-0.8-5.5-2.3   c-1.3-1.5-2-3.6-2-6.3C66.6,16,67.3,13.8,68.9,12.2z"/>
	<path d="M96.6,25.5c-1.2,1.3-3.1,1.9-5.4,1.9c-2.4,0-4.2-0.6-5.4-1.9c-1.7-1.6-2.5-3.8-2.5-6.8c0-3,0.8-5.3,2.5-6.8   c1.2-1.3,3-1.9,5.4-1.9c2.4,0,4.2,0.6,5.4,1.9c1.7,1.5,2.5,3.8,2.5,6.8C99.1,21.7,98.2,23.9,96.6,25.5z M94.4,23   c0.8-1,1.2-2.4,1.2-4.3c0-1.9-0.4-3.3-1.2-4.3c-0.8-1-1.9-1.5-3.3-1.5c-1.4,0-2.5,0.5-3.3,1.5c-0.8,1-1.2,2.4-1.2,4.3   c0,1.9,0.4,3.3,1.2,4.3c0.8,1,1.9,1.5,3.3,1.5C92.5,24.5,93.6,24,94.4,23z"/>
	<path d="M111.3,10.5h3.6L109.3,27H106l-5.6-16.5h3.7l3.6,12.5L111.3,10.5z"/>
	<path d="M120.1,27h-3.4V10.5h3.4V27z"/>
	<path d="M133,10.8c1.2,0.4,2.1,1.1,2.8,2.1c0.6,0.8,1,1.7,1.2,2.7c0.2,1,0.3,1.9,0.3,2.7c0,2.2-0.4,4.1-1.3,5.6   c-1.2,2.1-3,3.1-5.5,3.1h-7.1V10.5h7.1C131.5,10.5,132.3,10.6,133,10.8z M126.7,13.3v10.8h3.2c1.6,0,2.8-0.8,3.4-2.4   c0.4-0.9,0.5-1.9,0.5-3.1c0-1.7-0.3-3-0.8-3.9s-1.6-1.3-3.1-1.3H126.7z"/>
</g>
<g class="st0">
	<path d="M138.5,10.5h12v1.3h-5.2V27h-1.6V11.8h-5.2V10.5z"/>
	<path d="M154.3,19.5V27l-1.6,0V10.5h6.5c1.8,0,3.2,0.3,4.2,1s1.4,1.8,1.4,3.3c0,1-0.2,1.9-0.6,2.5c-0.4,0.6-1.1,1.1-2.1,1.6   c0.5,0.2,0.9,0.4,1.1,0.7c0.3,0.3,0.5,0.7,0.6,1.1c0.1,0.4,0.2,0.8,0.3,1.3c0,0.5,0.1,0.9,0.1,1.3c0,0.6,0,1.1,0.1,1.6   c0,0.4,0.1,0.8,0.1,1c0.1,0.3,0.1,0.5,0.2,0.6s0.2,0.3,0.3,0.3V27l-1.7,0c-0.2-0.3-0.3-0.7-0.4-1.1c-0.1-0.5-0.1-1-0.2-1.5   s-0.1-1.1-0.1-1.6c0-0.5-0.1-0.9-0.1-1.2c-0.1-0.4-0.2-0.8-0.4-1.1s-0.5-0.5-0.7-0.6c-0.3-0.1-0.6-0.2-1-0.3   c-0.4,0-0.7-0.1-1.1-0.1H154.3z M159.2,18.2c0.6,0,1.1-0.1,1.6-0.2c0.5-0.1,0.9-0.3,1.3-0.6s0.7-0.6,0.9-1c0.2-0.4,0.3-0.9,0.3-1.5   c0-0.6-0.1-1.1-0.3-1.5s-0.5-0.7-0.9-0.9c-0.4-0.2-0.8-0.4-1.3-0.5c-0.5-0.1-1-0.1-1.5-0.1h-5v6.4H159.2z"/>
	<path d="M166.6,27l6.5-16.5h1.8l6.3,16.5h-1.6l-1.9-5.2h-7.5l-1.9,5.2H166.6z M170.7,20.5h6.5l-3.2-8.7L170.7,20.5z"/>
	<path d="M195.1,15.3c-0.3-1.4-0.9-2.4-1.8-3c-0.9-0.6-2-0.9-3.4-0.9c-1,0-1.9,0.2-2.6,0.6c-0.7,0.4-1.3,0.9-1.8,1.6s-0.8,1.4-1,2.3   c-0.2,0.9-0.3,1.8-0.3,2.8c0,0.9,0.1,1.8,0.3,2.7c0.2,0.9,0.5,1.7,1,2.4c0.4,0.7,1,1.3,1.8,1.7c0.7,0.4,1.7,0.6,2.8,0.6   c0.7,0,1.3-0.1,1.9-0.3s1.1-0.5,1.5-1s0.8-0.9,1.1-1.4c0.3-0.6,0.5-1.2,0.7-1.8h1.6c-0.2,0.8-0.5,1.5-0.8,2.3   c-0.4,0.7-0.8,1.3-1.4,1.9c-0.6,0.5-1.3,1-2.1,1.3s-1.8,0.5-2.9,0.5c-1.3,0-2.4-0.2-3.3-0.7c-0.9-0.5-1.6-1.1-2.2-1.9   c-0.6-0.8-1-1.7-1.3-2.8c-0.3-1-0.4-2.2-0.4-3.3c0-1.6,0.2-2.9,0.6-4c0.4-1.1,0.9-2,1.6-2.7c0.7-0.7,1.5-1.2,2.4-1.5   c0.9-0.3,1.9-0.5,3.1-0.5c0.8,0,1.6,0.1,2.4,0.3c0.7,0.2,1.4,0.6,1.9,1s1,1,1.4,1.6c0.4,0.7,0.6,1.4,0.7,2.3H195.1z"/>
	<path d="M200,27V10.5h1.6V19l8.5-8.6h1.8l-6.5,6.6L213,27h-1.9l-6.9-9l-2.6,2.6V27H200z"/>
	<path d="M215.2,27V10.5h11v1.3h-9.4v6h8.5v1.3h-8.5v6.6h9.7V27H215.2z"/>
	<path d="M230.8,19.5V27l-1.6,0V10.5h6.5c1.8,0,3.2,0.3,4.2,1c1,0.7,1.4,1.8,1.4,3.3c0,1-0.2,1.9-0.6,2.5c-0.4,0.6-1.1,1.1-2.1,1.6   c0.5,0.2,0.9,0.4,1.1,0.7c0.3,0.3,0.5,0.7,0.6,1.1c0.1,0.4,0.2,0.8,0.3,1.3c0,0.5,0.1,0.9,0.1,1.3c0,0.6,0,1.1,0.1,1.6   s0.1,0.8,0.1,1s0.1,0.5,0.2,0.6s0.2,0.3,0.3,0.3V27l-1.7,0c-0.2-0.3-0.3-0.7-0.4-1.1s-0.1-1-0.2-1.5c0-0.5-0.1-1.1-0.1-1.6   c0-0.5-0.1-0.9-0.1-1.2c-0.1-0.4-0.2-0.8-0.4-1.1c-0.2-0.3-0.5-0.5-0.7-0.6s-0.6-0.2-1-0.3c-0.4,0-0.7-0.1-1.1-0.1H230.8z    M235.7,18.2c0.6,0,1.1-0.1,1.6-0.2c0.5-0.1,0.9-0.3,1.3-0.6s0.7-0.6,0.9-1s0.3-0.9,0.3-1.5c0-0.6-0.1-1.1-0.3-1.5   c-0.2-0.4-0.5-0.7-0.9-0.9s-0.8-0.4-1.3-0.5s-1-0.1-1.5-0.1h-5v6.4H235.7z"/>
</g>
<g transform="translate(0,-280.06665)">
	<path d="M30,282.1c-0.3,0-0.5,0-0.8,0c-8.8,0.4-15.6,7.8-15.2,16.5s7.8,15.6,16.5,15.2c3-0.1,5.8-1.1,8.1-2.6l7.4,7   c0.3,0.2,0.6,0.2,0.9,0l0,0l4.2-4.6c0.2-0.3,0.2-0.6,0-0.9l-7.4-7c1.4-2.5,2.1-5.4,2-8.4C45.4,288.8,38.4,282.2,30,282.1L30,282.1z    M30,283.3c7.8,0.1,14.2,6.2,14.5,14.1c0.1,2.9-0.6,5.7-2,8l-0.1,0.1c-1,1.7-2.4,3.2-4.1,4.4c0,0,0,0-0.1,0   c-2.2,1.6-4.9,2.5-7.8,2.7c-8.1,0.3-14.9-6-15.2-14c-0.3-8.1,6-14.9,14.1-15.2C29.5,283.3,29.7,283.3,30,283.3L30,283.3z M30,284.3   c-0.2,0-0.5,0-0.7,0c-7.6,0.3-13.5,6.7-13.2,14.3s6.7,13.5,14.3,13.2s13.5-6.7,13.2-14.3C43.2,290.1,37.2,284.3,30,284.3L30,284.3z    M30,285.5c6.6,0.1,12,5.3,12.3,12c0.3,6.9-5.1,12.7-12,13s-12.7-5.1-13-12s5.1-12.7,12-13C29.5,285.5,29.8,285.5,30,285.5   L30,285.5z M29.3,286.9c-0.4,0-0.7,0.2-1,0.5c-0.5,0.6-0.5,1.5,0.1,2c0.1,0.1,0.3,0.2,0.5,0.3l0.1,1.7c-1.3,0.2-2.6,0.7-3.6,1.7   l-0.8-0.7c0.1-0.5,0-1.1-0.4-1.5c-0.6-0.5-1.5-0.5-2,0.1s-0.5,1.5,0.1,2c0.4,0.4,1,0.5,1.5,0.3l0.8,0.7c-0.9,1.1-1.3,2.4-1.4,3.8   l-1.5,0.1c-0.1-0.2-0.2-0.3-0.3-0.5c-0.6-0.5-1.5-0.5-2,0.1s-0.5,1.5,0.1,2.1c0.6,0.5,1.5,0.5,2-0.1c0.1-0.1,0.2-0.2,0.2-0.3   l1.6-0.1c0.2,1.3,0.7,2.5,1.7,3.6l-0.7,0.8c-0.5-0.2-1.1,0-1.5,0.4c-0.5,0.6-0.5,1.5,0.1,2s1.5,0.5,2-0.1c0.4-0.4,0.5-1,0.3-1.5   l0.7-0.8c1.1,0.8,2.4,1.3,3.7,1.4l0.1,1.9l-0.1,0.1c-0.5,0.6-0.5,1.5,0.1,2.1c0.6,0.5,1.5,0.5,2-0.1s0.5-1.5-0.1-2   c-0.2-0.2-0.4-0.3-0.7-0.3l-0.1-1.7c1.3-0.2,2.6-0.7,3.6-1.7l0.8,0.8c-0.1,0.5,0,1.1,0.4,1.5c0.6,0.5,1.5,0.5,2.1-0.1   c0.5-0.6,0.5-1.5-0.1-2c-0.4-0.4-1-0.5-1.5-0.3l-0.8-0.8c0.8-1.1,1.3-2.4,1.4-3.8l1.7-0.1c0.1,0.2,0.2,0.4,0.4,0.5   c0.6,0.5,1.5,0.5,2-0.1s0.5-1.5-0.1-2s-1.5-0.5-2.1,0.1c-0.1,0.1-0.1,0.2-0.2,0.3l-1.9,0.1c-0.2-1.3-0.7-2.5-1.7-3.6l0.8-0.9   c0.5,0.1,1.1,0,1.5-0.4c0.5-0.6,0.5-1.5-0.1-2s-1.5-0.5-2,0.1c-0.4,0.4-0.5,1-0.3,1.5l-0.8,0.8c-1.1-0.8-2.4-1.3-3.7-1.4l-0.1-1.8   c0.1-0.1,0.2-0.1,0.3-0.2c0.5-0.6,0.5-1.5-0.1-2C30,287,29.6,286.8,29.3,286.9L29.3,286.9z M29.3,288.1c0.1,0,0.1,0,0.1,0.1   c0.1,0.1,0.1,0.2,0,0.3c-0.1,0.1-0.2,0.1-0.3,0c-0.1-0.1-0.1-0.2,0-0.3C29.2,288.1,29.3,288.1,29.3,288.1L29.3,288.1z M35.9,291   c0.1,0,0.1,0,0.1,0.1c0.1,0.1,0.1,0.2,0,0.3c-0.1,0.1-0.2,0.1-0.3,0s-0.1-0.2,0-0.3C35.8,291.1,35.9,291,35.9,291L35.9,291z    M23.1,291.7c0,0,0.1,0,0.1,0.1c0.1,0.1,0.1,0.2,0,0.3c-0.1,0.1-0.2,0.1-0.3,0c-0.1-0.1-0.1-0.2,0-0.3   C23,291.7,23,291.7,23.1,291.7L23.1,291.7z M29.5,292.5c1.4-0.1,2.8,0.4,3.9,1.4c2.2,2,2.4,5.5,0.3,7.7c-2,2.2-5.5,2.4-7.7,0.3   c-2.2-2-2.4-5.5-0.3-7.7C26.8,293.2,28.1,292.6,29.5,292.5z M30,293.9c-0.4,0-0.7,0.2-1,0.5c-0.5,0.6-0.5,1.5,0.1,2s1.5,0.5,2-0.1   s0.5-1.5-0.1-2C30.8,294.1,30.4,293.9,30,293.9z M30.1,295.2c0,0,0.1,0,0.1,0.1c0.1,0.1,0.1,0.2,0,0.3c-0.1,0.1-0.2,0.1-0.3,0   c-0.1-0.1-0.1-0.2,0-0.3C30,295.2,30,295.2,30.1,295.2L30.1,295.2z M39.5,297.5c0.1,0,0.1,0,0.1,0.1c0.1,0.1,0.1,0.2,0,0.3   c-0.1,0.1-0.2,0.1-0.3,0s-0.1-0.2,0-0.3C39.4,297.5,39.5,297.5,39.5,297.5L39.5,297.5z M27.3,297.6c-0.4,0-0.7,0.2-1,0.5   c-0.5,0.6-0.5,1.5,0.1,2s1.5,0.5,2-0.1s0.5-1.5-0.1-2C28.1,297.7,27.7,297.6,27.3,297.6z M32,297.8c-0.4,0-0.7,0.2-1,0.5   c-0.5,0.6-0.5,1.5,0.1,2s1.5,0.5,2-0.1s0.5-1.5-0.1-2C32.7,297.9,32.3,297.8,32,297.8z M20.2,298.2c0.1,0,0.1,0,0.1,0.1   c0.1,0.1,0.1,0.2,0,0.3c-0.1,0.1-0.2,0.1-0.3,0c-0.1-0.1-0.1-0.2,0-0.3C20.1,298.2,20.2,298.2,20.2,298.2L20.2,298.2z M27.4,298.8   c0,0,0.1,0,0.1,0.1c0.1,0.1,0.1,0.2,0,0.3c-0.1,0.1-0.2,0.1-0.3,0c-0.1-0.1-0.1-0.2,0-0.3C27.3,298.9,27.4,298.8,27.4,298.8   L27.4,298.8z M32,299c0.1,0,0.1,0,0.1,0.1c0.1,0.1,0.1,0.2,0,0.3c-0.1,0.1-0.2,0.1-0.3,0c-0.1-0.1-0.1-0.2,0-0.3   C31.9,299,32,299,32,299L32,299z M36.5,303.9c0,0,0.1,0,0.1,0.1c0.1,0.1,0.1,0.2,0,0.3c-0.1,0.1-0.2,0.1-0.3,0s-0.1-0.2,0-0.3   C36.4,304,36.4,304,36.5,303.9L36.5,303.9z M23.6,304.4c0.1,0,0.1,0,0.1,0.1c0.1,0.1,0.1,0.2,0,0.3c-0.1,0.1-0.2,0.1-0.3,0   c-0.1-0.1-0.1-0.2,0-0.3C23.5,304.5,23.6,304.4,23.6,304.4L23.6,304.4z M43,306.8l6.8,6.4l-3.4,3.7l-6.8-6.4   C40.9,309.4,42.1,308.2,43,306.8z M30.4,307.5c0.1,0,0.1,0,0.1,0.1c0.1,0.1,0.1,0.2,0,0.3c-0.1,0.1-0.2,0.1-0.3,0   c-0.1-0.1-0.1-0.2,0-0.3C30.3,307.6,30.4,307.5,30.4,307.5L30.4,307.5z"/>
</g>
</svg>