<?xml version="1.0" encoding="utf-8"?>
<!-- Generator: Adobe Illustrator 24.0.2, SVG Export Plug-In . SVG Version: 6.00 Build 0)  -->
<svg version="1.1" id="Calque_1" xmlns="http://www.w3.org/2000/svg" xmlns:xlink="http://www.w3.org/1999/xlink" x="0px" y="0px"
	 viewBox="0 0 1000 446.6" style="enable-background:new 0 0 1000 446.6;" xml:space="preserve">
<style type="text/css">
	.st0{fill:#777A71;}
	.st1{fill:#9B0C36;}
	.st2{fill:#9C0C35;}
</style>
<g>
	<polygon class="st0" points="45.2,14.9 13.7,14.9 13.7,2.5 89.9,2.5 89.9,14.9 58.4,14.9 58.4,100.3 45.2,100.3 	"/>
	<path class="st0" d="M187.3,45.6v48.2c-2.4,1.5-5.1,2.8-8.2,3.9c-3,1.1-6.2,2-9.5,2.8s-6.6,1.4-9.9,1.7c-3.4,0.4-6.5,0.5-9.5,0.5
		c-8.3,0-15.7-1.4-22.2-4.1c-6.5-2.8-12-6.5-16.4-11.2c-4.5-4.7-7.9-10.2-10.2-16.4c-2.4-6.2-3.5-12.8-3.5-19.7
		c0-7.3,1.3-14.1,3.8-20.3c2.5-6.3,6-11.7,10.5-16.3c4.5-4.6,9.8-8.2,16.1-10.8c6.3-2.6,13.1-3.9,20.6-3.9c9,0,16.4,1.1,22.1,3.4
		c5.7,2.3,10.5,5.4,14.4,9.3L176,22.8c-4.1-3.9-8.3-6.6-12.8-8.1s-9.3-2.3-14.2-2.3c-5.6,0-10.7,1-15.2,3.1s-8.4,4.9-11.6,8.4
		s-5.7,7.6-7.5,12.4c-1.8,4.7-2.6,9.8-2.6,15.1c0,5.5,1,10.7,2.9,15.4c1.9,4.8,4.6,8.9,8,12.4s7.4,6.2,12,8.2c4.6,2,9.6,3,15.1,3
		c4.7,0,9.1-0.4,13.3-1.3s7.8-2.1,10.7-3.8V58h-21.7V45.6H187.3z"/>
	<polygon class="st0" points="198.1,2.5 213.4,2.5 242.2,82.1 242.5,82.1 272.3,2.5 286.8,2.5 248.3,100.3 235.8,100.3 	"/>
	<path class="st0" d="M137.7,233.2c0-26.1,21.2-47.3,47.3-47.3s47.3,21.2,47.3,47.3v140.3H287V233.2c0-56.3-45.8-102-102.1-102
		S82.8,177,82.8,233.2v140.3h54.8V233.2H137.7z"/>
	<path class="st0" d="M17,142.2C8.3,178.5,3.6,216.4,3.4,255.3c0,0.9,0.1,76.3,0.1,76.3c1.6-1.2,3.2-2.3,4.9-3.3
		c6.8-4,14.7-6.3,23.2-6.3c10.1,0,19.4,3.3,27,8.8V142.2H17z"/>
</g>
<g>
	<path class="st1" d="M31.6,342.9C14.7,342.9,1,356.6,1,373.5C1,390.3,14.7,404,31.6,404s30.6-13.7,30.6-30.6
		C62.1,356.6,48.4,342.9,31.6,342.9"/>
	<path class="st2" d="M862.5,282.4c0,26.1-21.2,47.3-47.3,47.3s-47.3-21.2-47.3-47.3V142.2h-54.8v140.3c0,56.3,45.8,102,102,102
		c56.3,0,102.1-45.8,102.1-102V142.2h-54.8L862.5,282.4L862.5,282.4z"/>
	<path class="st2" d="M968.6,172.7c16.9,0,30.6-13.7,30.6-30.6s-13.7-30.6-30.6-30.6c-16.9,0-30.6,13.7-30.6,30.6
		C938.1,159,951.7,172.7,968.6,172.7"/>
	<path class="st2" d="M983.2,373.5c8.7-36.3,13.3-74.2,13.5-113.1c0-0.9-0.1-76.3-0.1-76.3c-1.6,1.2-3.2,2.3-4.9,3.3
		c-6.8,4-14.7,6.3-23.1,6.3c-10.1,0-19.4-3.3-27-8.8v188.6H983.2z"/>
</g>
<path class="st2" d="M500.1,446.6c104.1,0,188.7-84.7,188.7-188.7c0-104.1-84.7-188.7-188.7-188.7c-104.1,0-188.7,84.7-188.7,188.7
	C311.4,361.9,396,446.6,500.1,446.6 M500.1,131.2c69.8,0,126.7,56.8,126.7,126.7c0,69.8-56.8,126.6-126.7,126.6
	c-69.8,0-126.6-56.8-126.6-126.6C373.4,188,430.3,131.2,500.1,131.2"/>
</svg>
